<?xml version="1.0" encoding="UTF-8"?>
<svg xmlns="http://www.w3.org/2000/svg" id="a" viewBox="0 0 500 500">
  <defs>
    <style>.b{fill:#010101;fill-rule:evenodd;}</style>
  </defs>
  <path class="b" d="M317.69,50.46c20.51-2.6,39.29,12.32,41.96,33.34,2.67,21.02-11.79,40.17-32.3,42.77-20.51,2.6-39.29-12.32-41.96-33.34-2.67-21.02,11.79-40.17,32.3-42.77Zm112.44,35.94c1.63,4.51,2.8,9.27,3.43,14.23,4.48,35.27-19.79,67.4-54.2,71.77-19.48,2.47-38.03-4.48-51.28-17.38,8.44,1.46,17.22,1.71,26.14,.57,37.97-4.82,67.32-33.24,75.89-69.13l.02-.07Zm-260.12,5.45c66.02-8.38,126.62,38.5,137.34,105.34-29.48-51.78-87.13-83.42-148.66-75.61-32.79,4.16-61.72,18.91-83.95,40.48,17.38-37.18,52.28-64.75,95.27-70.21Zm151.83,139.17c49.25-6.25,95.98,13.25,127.24,48.22l.93,1.05-1.45-.54c-48.38-17.71-101.37-24.42-155.7-17.52-19.46,2.47-38.32,6.59-56.47,12.21l-.91,.28,.66-.69c22.22-22.96,51.86-38.72,85.69-43.02Zm-73.28-22.01c29.86-3.79,59.11-1.48,86.57,5.99l.67-.09c-134.21,17.04-240.78,109.77-284.26,231.25l-1.29,3.67-.14-3.58c-3.61-118.59,81.18-222.35,198.44-237.25Z"></path>
</svg>
