<?xml version="1.0" encoding="UTF-8"?> <svg xmlns="http://www.w3.org/2000/svg" width="293" height="57" viewBox="0 0 293 57" fill="none"><g clip-path="url(#clip0_52145_3140)"><path d="M151.116 25.2577L154.497 19.2447H151.858L149.492 23.3957C148.428 22.2827 144.522 18.1387 143.913 17.4737C143.451 16.9767 143.01 16.3887 142.555 15.6887C142.128 15.0307 141.981 14.3377 142.1 13.6307C142.226 12.9167 142.667 12.3707 143.353 12.0837C144.13 11.7547 145.096 11.8387 145.747 12.2937C146.307 12.6787 146.594 13.2807 146.65 14.1837L146.664 14.4637H149.016V14.1697C149.037 12.7347 148.589 11.6427 147.644 10.8307C146.601 9.93474 145.313 9.59174 143.717 9.77374C142.282 9.93474 141.225 10.5017 140.483 11.4957C139.405 12.9447 139.377 15.0727 140.42 16.7877C140.616 17.1097 140.833 17.4107 141.064 17.7257C141.099 17.7747 141.134 17.8237 141.169 17.8727C141.071 17.9217 140.973 17.9707 140.875 18.0267C140.294 18.3627 139.545 18.8317 138.915 19.4197C136.906 21.3097 136.556 24.8937 138.152 27.2457C138.684 28.0297 139.384 28.6317 140.238 29.0377C141.379 29.5767 142.527 29.8497 143.661 29.8497C145.243 29.8497 146.804 29.3247 148.274 28.2817C148.687 27.9877 149.051 27.6447 149.401 27.3157C149.478 27.2457 149.548 27.1757 149.625 27.1057L150.367 27.8477C150.864 28.3447 151.473 28.9607 151.921 29.3947C151.956 29.4297 151.998 29.4647 152.033 29.4997L152.117 29.5767H155.365L151.109 25.2577H151.116ZM148.05 25.3697C146.958 26.6297 145.747 27.3297 144.368 27.5047C143.276 27.6447 142.352 27.5047 141.561 27.0987C140.455 26.5247 139.713 25.4047 139.573 24.0957C139.433 22.7657 139.937 21.4777 140.931 20.6517C141.463 20.2107 142.296 19.6997 142.674 19.6157L148.05 25.3697Z" fill="#004E72"></path><path d="M144.753 38.201C134.638 38.201 126.406 29.969 126.406 19.854C126.406 9.739 134.631 1.5 144.753 1.5C154.875 1.5 163.1 9.732 163.1 19.847C163.1 29.962 154.868 38.194 144.753 38.194V38.201ZM144.753 3.943C135.982 3.943 128.842 11.083 128.842 19.854C128.842 28.625 135.982 35.765 144.753 35.765C153.524 35.765 160.664 28.625 160.664 19.854C160.664 11.083 153.524 3.943 144.753 3.943Z" fill="#FFB700"></path><path d="M16.009 21.2047H2.898V31.3477H0V8.42969H2.898V18.4397H16.009V8.42969H18.907V31.3477H16.009V21.2047Z" fill="#004E72"></path><path d="M26.1938 31.3547V8.42969H38.5279V11.1947H29.0919V18.4397H37.8559V21.2047H29.0919V28.5897H38.5279V31.3547H26.1938Z" fill="#004E72"></path><path d="M57.1689 24.95H47.9009L45.5769 31.355H42.3079L50.9389 8.43701H54.2079L62.8389 31.355H59.5699L57.1759 24.95H57.1689ZM48.8809 22.15H56.2309L52.5559 12.238L48.8809 22.15Z" fill="#004E72"></path><path d="M67.522 31.3547V8.42969H70.42V28.5897H79.856V31.3547H67.522Z" fill="#004E72"></path><path d="M86.905 11.1947H80.7729V8.42969H95.872V11.1947H89.8029V31.3547H86.905V11.1947Z" fill="#004E72"></path><path d="M116.802 21.2047H103.691V31.3477H100.793V8.42969H103.691V18.4397H116.802V8.42969H119.7V31.3477H116.802V21.2047Z" fill="#004E72"></path><path d="M172.893 22.0799V31.3829H169.974V8.29688H184.499V11.0829H172.893V19.2939H183.82V22.0799H172.893Z" fill="#004E72"></path><path d="M189.917 8.29688H192.836V31.3759H189.917V8.29688Z" fill="#004E72"></path><path d="M204.008 11.0829H197.834V8.29688H213.038V11.0829H206.927V31.3829H204.008V11.0829Z" fill="#004E72"></path><path d="M221.046 14.8139V31.3759H218.127V10.9149L216.531 8.54188V8.30388H220.059L233.296 26.3639V8.29688H236.215V31.3759H233.296L221.046 14.8139Z" fill="#004E72"></path><path d="M243.586 31.3829V8.29688H256.011V11.0829H246.505V18.3839H255.332V21.1699H246.505V28.6039H256.011V31.3899H243.586V31.3829Z" fill="#004E72"></path><path d="M274.19 12.5109C272.937 11.5239 271.103 10.7119 269.164 10.7119C266.651 10.7119 265.125 11.9999 265.125 13.9389C265.125 15.1289 265.804 16.0739 267.26 16.9909L271.264 19.5039C274.113 21.3029 275.17 23.0319 275.17 25.4469C275.17 28.7369 272.762 31.7259 267.869 31.7259C265.524 31.7259 263.522 31.0119 262.199 30.3329V26.9029C263.424 27.9179 265.391 28.9749 267.799 28.9749C270.585 28.9749 272.076 27.3789 272.076 25.5799C272.076 24.3549 271.264 23.2349 269.563 22.1849L265.594 19.6719C262.948 18.0409 261.996 16.3119 261.996 14.0019C261.996 11.0479 263.998 7.96094 269.227 7.96094C271.229 7.96094 272.958 8.50694 274.183 9.21394V12.5039L274.19 12.5109Z" fill="#004E72"></path><path d="M291.613 12.5109C290.36 11.5239 288.526 10.7119 286.587 10.7119C284.074 10.7119 282.548 11.9999 282.548 13.9389C282.548 15.1289 283.227 16.0739 284.683 16.9909L288.687 19.5039C291.536 21.3029 292.593 23.0319 292.593 25.4469C292.593 28.7369 290.185 31.7259 285.292 31.7259C282.947 31.7259 280.945 31.0119 279.622 30.3329V26.9029C280.847 27.9179 282.814 28.9749 285.222 28.9749C288.008 28.9749 289.499 27.3789 289.499 25.5799C289.499 24.3549 288.687 23.2349 286.986 22.1849L283.017 19.6719C280.371 18.0409 279.419 16.3119 279.419 14.0019C279.419 11.0479 281.421 7.96094 286.65 7.96094C288.652 7.96094 290.381 8.50694 291.606 9.21394V12.5039L291.613 12.5109Z" fill="#004E72"></path><path d="M93.835 53.5097H89.684L88.704 56.1977H86.667L90.734 45.3057H92.771L96.838 56.1977H94.801L93.821 53.5097H93.835ZM90.279 51.7597H93.24L91.763 47.6927L90.272 51.7597H90.279Z" fill="#004E72"></path><path d="M105.518 47.6715C104.944 47.2235 104.027 46.8525 103.152 46.8525C102.109 46.8525 101.535 47.3635 101.535 48.0845C101.535 48.5465 101.836 48.9315 102.431 49.3025L104.097 50.3455C105.49 51.1785 106.022 52.0605 106.022 53.2435C106.022 54.8815 104.867 56.3655 102.466 56.3655C101.36 56.3655 100.401 56.0575 99.7431 55.7425V53.6915C100.324 54.1535 101.325 54.6365 102.389 54.6365C103.453 54.6365 104.069 54.0625 104.069 53.3415C104.069 52.8585 103.761 52.4455 103.061 52.0115L101.367 50.9685C100.023 50.1845 99.5891 49.3025 99.5891 48.1475C99.5891 46.6915 100.548 45.1235 103.194 45.1235C104.076 45.1235 104.888 45.3615 105.532 45.6835V47.6715H105.518Z" fill="#004E72"></path><path d="M115.234 47.6715C114.66 47.2235 113.743 46.8525 112.868 46.8525C111.825 46.8525 111.251 47.3635 111.251 48.0845C111.251 48.5465 111.552 48.9315 112.147 49.3025L113.813 50.3455C115.206 51.1785 115.738 52.0605 115.738 53.2435C115.738 54.8815 114.583 56.3655 112.182 56.3655C111.076 56.3655 110.117 56.0575 109.459 55.7425V53.6915C110.033 54.1535 111.041 54.6365 112.105 54.6365C113.169 54.6365 113.785 54.0625 113.785 53.3415C113.785 52.8585 113.477 52.4455 112.777 52.0115L111.083 50.9685C109.739 50.1845 109.305 49.3025 109.305 48.1475C109.305 46.6915 110.264 45.1235 112.91 45.1235C113.792 45.1235 114.604 45.3615 115.248 45.6835V47.6715H115.234Z" fill="#004E72"></path><path d="M124.488 45.1309C127.673 45.1309 130.095 47.5669 130.095 50.7519C130.095 53.9369 127.673 56.3729 124.488 56.3729C121.303 56.3729 118.881 53.9369 118.881 50.7519C118.881 47.5669 121.303 45.1309 124.488 45.1309ZM124.488 54.5459C126.588 54.5459 128.198 52.8659 128.198 50.7519C128.198 48.6379 126.581 46.9579 124.488 46.9579C122.395 46.9579 120.75 48.6379 120.75 50.7519C120.75 52.8659 122.353 54.5459 124.488 54.5459Z" fill="#004E72"></path><path d="M141.477 55.7009C140.707 56.1209 139.797 56.3729 138.817 56.3729C135.632 56.3729 133.21 53.9369 133.21 50.7519C133.21 47.5669 135.632 45.1309 138.817 45.1309C139.797 45.1309 140.707 45.3899 141.477 45.8029V47.9169C140.819 47.3429 139.874 46.9579 138.817 46.9579C136.689 46.9579 135.086 48.6379 135.086 50.7519C135.086 52.8659 136.689 54.5459 138.817 54.5459C139.874 54.5459 140.833 54.1609 141.477 53.6009V55.7009Z" fill="#004E72"></path><path d="M145.46 45.3057H147.287V56.1977H145.46V45.3057Z" fill="#004E72"></path><path d="M157.738 53.5097H153.587L152.607 56.1977H150.577L154.644 45.3057H156.681L160.748 56.1977H158.711L157.731 53.5097H157.738ZM154.182 51.7597H157.143L155.666 47.6927L154.175 51.7597H154.182Z" fill="#004E72"></path><path d="M165.13 47.0487H162.358V45.3057H169.729V47.0487H166.957V56.1977H165.13V47.0487Z" fill="#004E72"></path><path d="M173.271 45.3057H175.098V56.1977H173.271V45.3057Z" fill="#004E72"></path><path d="M184.548 45.1309C187.733 45.1309 190.155 47.5669 190.155 50.7519C190.155 53.9369 187.733 56.3729 184.548 56.3729C181.363 56.3729 178.941 53.9369 178.941 50.7519C178.941 47.5669 181.363 45.1309 184.548 45.1309ZM184.548 54.5459C186.648 54.5459 188.265 52.8659 188.265 50.7519C188.265 48.6379 186.648 46.9579 184.548 46.9579C182.448 46.9579 180.817 48.6379 180.817 50.7519C180.817 52.8659 182.42 54.5459 184.548 54.5459Z" fill="#004E72"></path><path d="M195.86 49.1488V56.1978H194.033V46.6008L193.298 45.4458V45.2988H195.475L200.984 53.0338V45.2988H202.811V56.1908H200.984L195.86 49.1418V49.1488Z" fill="#004E72"></path></g><defs><clipPath id="clip0_52145_3140"><rect width="292.6" height="56" fill="white" transform="translate(0 0.799805)"></rect></clipPath></defs></svg> 